<svg width="24.000000" height="24.000000" viewBox="0 0 24 24" fill="none" xmlns="http://www.w3.org/2000/svg" xmlns:xlink="http://www.w3.org/1999/xlink">
	<desc>
			Created with Pixso.
	</desc>
	<defs/>
	<path id="Union" d="M3.5 7.5C4.32 7.5 5 6.82 5 6C5 5.17 4.32 4.5 3.5 4.5C2.67 4.5 2 5.17 2 6C2 6.82 2.67 7.5 3.5 7.5ZM7 5.25L22 5.25L22 6.75L7 6.75L7 5.25ZM22 11.25L7 11.25L7 12.75L22 12.75L22 11.25ZM22 17.25L7 17.25L7 18.75L22 18.75L22 17.25ZM5 12C5 12.82 4.32 13.5 3.5 13.5C2.67 13.5 2 12.82 2 12C2 11.17 2.67 10.5 3.5 10.5C4.32 10.5 5 11.17 5 12ZM3.5 19.5C4.32 19.5 5 18.82 5 18C5 17.17 4.32 16.5 3.5 16.5C2.67 16.5 2 17.17 2 18C2 18.82 2.67 19.5 3.5 19.5Z" fill="#E8E9EA" fill-opacity="1.000000" fill-rule="evenodd"/>
</svg>
