<svg width="24.000000" height="24.000000" viewBox="0 0 24 24" fill="none" xmlns="http://www.w3.org/2000/svg" xmlns:xlink="http://www.w3.org/1999/xlink">
	<desc>
			Created with Pixso.
	</desc>
	<defs/>
	<path id="Union" d="M18.49 10.98L17.51 11.34L17.51 12.38L17.51 18C17.51 18.82 16.84 19.5 16.01 19.5L15 19.5L15 19.5L15 14C15 12.89 14.1 12 13 12L11 12C9.89 12 9 12.89 9 14L9 19.5L9 19.5L7.99 19.5C7.16 19.5 6.49 18.82 6.49 18L6.49 12.38L6.49 11.34L5.51 10.98L4.04 10.43L12 4.61L19.95 10.43L18.49 10.98ZM21.34 11.52L19.01 12.38L19.01 18C19.01 19.65 17.67 21 16.01 21L7.99 21C6.33 21 4.99 19.65 4.99 18L4.99 12.38L2.65 11.52C1.9 11.24 1.76 10.24 2.41 9.77L11.41 3.19C11.76 2.93 12.24 2.93 12.59 3.19L21.58 9.77C22.23 10.24 22.09 11.24 21.34 11.52ZM11 13.5L13 13.5C13.27 13.5 13.5 13.72 13.5 14L13.5 19.5L10.5 19.5L10.5 14C10.5 13.72 10.72 13.5 11 13.5Z" fill="#E8E9EA" fill-opacity="1.000000" fill-rule="evenodd"/>
</svg>
