<svg width="74.000000" height="2.000000" viewBox="0 0 74 2" fill="none" xmlns="http://www.w3.org/2000/svg" xmlns:xlink="http://www.w3.org/1999/xlink">
	<desc>
			Created with Pixso.
	</desc>
	<defs>
		<clipPath id="clip1474_98951">
			<rect id="Frame 31976" rx="0.000000" width="73.000000" height="1.000000" transform="translate(0.500000 0.500000)" fill="white" fill-opacity="0"/>
		</clipPath>
	</defs>
	<g clip-path="url(#clip1474_98951)">
		<path id="Vector" d="M0 0L22 0L22 2L0 2L0 0ZM26 0L48 0L48 2L26 2L26 0ZM74 0L52 0L52 2L74 2L74 0Z" fill="#9466FF" fill-opacity="1.000000" fill-rule="evenodd"/>
		<rect id="Rectangle 347" x="78.000000" width="20.000000" height="2.000000" fill="#9466FF" fill-opacity="1.000000"/>
		<rect id="Rectangle 346" x="102.000000" width="18.000000" height="2.000000" fill="#9466FF" fill-opacity="1.000000"/>
		<rect id="Rectangle 345" x="124.000000" width="16.000000" height="2.000000" fill="#9466FF" fill-opacity="1.000000"/>
		<rect id="Rectangle 344" x="144.000000" width="14.000000" height="2.000000" fill="#9466FF" fill-opacity="1.000000"/>
		<rect id="Rectangle 343" x="162.000000" width="12.000000" height="2.000000" fill="#9466FF" fill-opacity="1.000000"/>
		<rect id="Rectangle 342" x="178.000000" width="10.000000" height="2.000000" fill="#9466FF" fill-opacity="1.000000"/>
		<rect id="Rectangle 341" x="192.000000" width="8.000000" height="2.000000" fill="#9466FF" fill-opacity="1.000000"/>
		<rect id="Rectangle 340" x="204.000000" width="6.000000" height="2.000000" fill="#9466FF" fill-opacity="1.000000"/>
		<rect id="Rectangle 339" x="214.000000" width="4.000000" height="2.000000" fill="#9466FF" fill-opacity="1.000000"/>
		<rect id="Rectangle 338" x="222.000000" width="2.000000" height="2.000000" fill="#9466FF" fill-opacity="1.000000"/>
	</g>
</svg>
